<svg id="Group_60" data-name="Group 60" xmlns="http://www.w3.org/2000/svg" xmlns:xlink="http://www.w3.org/1999/xlink" viewBox="0 0 464.77 112.07"><defs><style>.cls-1{fill:url(#linear-gradient);}</style><linearGradient id="linear-gradient" x1="-33.71" y1="-15.46" x2="409.15" y2="125.57" gradientUnits="userSpaceOnUse"><stop offset="0" stop-color="#75f8d2"/><stop offset="0.15" stop-color="#6ed8d5"/><stop offset="0.33" stop-color="#68bbd8"/><stop offset="0.5" stop-color="#64a7d9"/><stop offset="0.67" stop-color="#619adb"/><stop offset="0.84" stop-color="#6096db"/></linearGradient></defs><path id="Path_15" data-name="Path 15" class="cls-1" d="M17.62,110.27h0A17.61,17.61,0,0,1,0,92.66H0V.32H0A17.62,17.62,0,0,1,17.62,17.94h0ZM40,51.87l47.63,58.4h0A43.73,43.73,0,0,1,53.59,94L23.82,57.25V47.14L52.38,15.37A45.38,45.38,0,0,1,86.13.32h0Z"/><path id="Path_16" data-name="Path 16" class="cls-1" d="M90.54,70.8a53.17,53.17,0,0,1,2.37-16A37.67,37.67,0,0,1,100,41.68a32.4,32.4,0,0,1,11.91-8.81,46.74,46.74,0,0,1,33.93,0,33.16,33.16,0,0,1,12,8.81,36.24,36.24,0,0,1,7.1,13.13,54.43,54.43,0,0,1,2.28,16A54.87,54.87,0,0,1,164.94,87a36.32,36.32,0,0,1-7.1,13.13,33.39,33.39,0,0,1-12,8.81,46.84,46.84,0,0,1-33.93,0A32.51,32.51,0,0,1,100,100.08,37.76,37.76,0,0,1,92.91,87,53.58,53.58,0,0,1,90.54,70.8Zm17.29,0q0,12.39,5.06,20.06t16,7.67q10.92,0,16.07-7.67t5.14-20.06q0-12.24-5.14-19.9t-16.07-7.67q-10.93,0-16,7.67t-5,19.9Z"/><path id="Path_17" data-name="Path 17" class="cls-1" d="M180.26,70.8a53.17,53.17,0,0,1,2.37-16,37.67,37.67,0,0,1,7.1-13.13,32.4,32.4,0,0,1,11.91-8.81,46.74,46.74,0,0,1,33.93,0,33.16,33.16,0,0,1,12,8.81,36.09,36.09,0,0,1,7.1,13.13,54.43,54.43,0,0,1,2.28,16A54.87,54.87,0,0,1,254.66,87a36.17,36.17,0,0,1-7.1,13.13,33.27,33.27,0,0,1-12,8.81,46.84,46.84,0,0,1-33.93,0,32.51,32.51,0,0,1-11.91-8.81A37.76,37.76,0,0,1,182.63,87,53.58,53.58,0,0,1,180.26,70.8Zm17.3,0q0,12.39,5.05,20.06t16,7.67q10.93,0,16.07-7.67t5.14-20.06q0-12.24-5.14-19.9T218.6,43.23q-10.93,0-16,7.67t-5.05,19.9Z"/><path id="Path_18" data-name="Path 18" class="cls-1" d="M292.5,110.28h0A17.3,17.3,0,0,1,275.21,93V0h0a17.3,17.3,0,0,1,17.29,17.3Zm54.49,0h0A39,39,0,0,1,316,95L297.4,70.63V62.48l15.06-16.36a45.39,45.39,0,0,1,33.39-14.64h0L313.38,66.56Z"/><path id="Path_19" data-name="Path 19" class="cls-1" d="M376.68,110.27h0A17.3,17.3,0,0,1,359.38,93h0V.32h0a17.3,17.3,0,0,1,17.3,17.29Z"/><path id="Path_20" data-name="Path 20" class="cls-1" d="M412.4,77.48q1.47,10.77,7.75,15.91t16.07,5.14a48.88,48.88,0,0,0,10.44-1.14l.1,0a11.45,11.45,0,0,1,13.37,7.73l.4,1.27q-10.61,5.72-26.1,5.71a47,47,0,0,1-17.14-2.86A31.87,31.87,0,0,1,405.06,101a35,35,0,0,1-7.34-13.08,56.38,56.38,0,0,1-2.45-17.17,58.88,58.88,0,0,1,2.12-16A36.82,36.82,0,0,1,404,41.54a30.56,30.56,0,0,1,11.47-8.83,40.4,40.4,0,0,1,16.77-3.19A37.58,37.58,0,0,1,446.29,32a28.26,28.26,0,0,1,10.26,6.88,28,28,0,0,1,6.18,10.64,43.42,43.42,0,0,1,2,13.58,52,52,0,0,1-.57,7.69v.08a7.88,7.88,0,0,1-7.8,6.64Zm20.07-34.91q-9.8,0-14.76,6.53t-5.8,17.29h36.87V63.45q0-9.95-3.83-15.41t-12.48-5.47Z"/></svg>