<?xml version="1.0" encoding="utf-8"?>
<!-- Generator: Adobe Illustrator 24.3.0, SVG Export Plug-In . SVG Version: 6.00 Build 0)  -->
<svg version="1.1" id="Group_53" xmlns="http://www.w3.org/2000/svg" xmlns:xlink="http://www.w3.org/1999/xlink" x="0px" y="0px"
	 viewBox="0 0 137.1 35.5" style="enable-background:new 0 0 137.1 35.5;" xml:space="preserve">
<style type="text/css">
	.st0{fill:#63A4D9;}
	.st1{fill:url(#Path_23_1_);}
	.st2{fill:url(#Path_24_1_);}
	.st3{fill:url(#Path_25_1_);}
</style>
<g id="Group_9" transform="translate(49.739 7)">
	<path id="Path_15" class="st0" d="M3.3,20.7L3.3,20.7c-1.8,0-3.3-1.5-3.3-3.3v0V0.1l0,0c1.8,0,3.3,1.5,3.3,3.3v0V20.7z M7.5,9.7
		l8.9,11l0,0c-2.5,0-4.8-1.1-6.4-3.1l-5.6-6.9V8.9l5.4-6c1.6-1.8,3.9-2.8,6.3-2.8l0,0L7.5,9.7z"/>
	<path id="Path_16" class="st0" d="M17,13.3c0-1,0.1-2,0.4-3c0.3-0.9,0.7-1.7,1.3-2.5c0.6-0.7,1.4-1.3,2.2-1.7
		c2.1-0.8,4.3-0.8,6.4,0c0.9,0.4,1.6,0.9,2.3,1.7c0.6,0.7,1.1,1.6,1.3,2.5c0.3,1,0.4,2,0.4,3c0,1-0.1,2-0.4,3
		c-0.3,0.9-0.7,1.7-1.3,2.5c-0.6,0.7-1.4,1.3-2.3,1.7c-2.1,0.8-4.3,0.8-6.4,0c-0.9-0.4-1.6-0.9-2.2-1.7c-0.6-0.7-1.1-1.6-1.3-2.5
		C17.2,15.4,17,14.3,17,13.3z M20.3,13.3c-0.1,1.3,0.3,2.6,0.9,3.8c0.7,1,1.8,1.5,3,1.4c1.2,0.1,2.3-0.5,3-1.4
		c1.3-2.3,1.3-5.2,0-7.5c-0.7-1-1.8-1.5-3-1.4c-1.2-0.1-2.3,0.5-3,1.4C20.5,10.7,20.2,12,20.3,13.3z"/>
	<path id="Path_17" class="st0" d="M33.9,13.3c0-1,0.1-2,0.4-3c0.3-0.9,0.7-1.7,1.3-2.5c0.6-0.7,1.4-1.3,2.2-1.7
		c2.1-0.8,4.3-0.8,6.4,0c0.9,0.4,1.6,0.9,2.3,1.7c0.6,0.7,1.1,1.6,1.3,2.5c0.3,1,0.4,2,0.4,3c0,1-0.1,2-0.4,3
		c-0.3,0.9-0.7,1.7-1.3,2.5c-0.6,0.7-1.4,1.3-2.3,1.7c-2.1,0.8-4.3,0.8-6.4,0c-0.9-0.4-1.6-0.9-2.2-1.7c-0.6-0.7-1.1-1.6-1.3-2.5
		C34,15.4,33.9,14.3,33.9,13.3z M37.1,13.3c-0.1,1.3,0.3,2.6,0.9,3.8c0.7,1,1.8,1.5,3,1.4c1.2,0.1,2.3-0.5,3-1.4
		c1.3-2.3,1.3-5.2,0-7.5c-0.7-1-1.8-1.5-3-1.4c-1.2-0.1-2.3,0.5-3,1.4C37.4,10.7,37.1,12,37.1,13.3L37.1,13.3z"/>
	<path id="Path_18" class="st0" d="M55,20.7L55,20.7c-1.8,0-3.2-1.5-3.2-3.2l0,0V0l0,0C53.5,0,55,1.5,55,3.2l0,0V20.7z M65.2,20.7
		L65.2,20.7c-2.3,0-4.4-1.1-5.8-2.9l-3.5-4.6v-1.5l2.8-3.1c1.6-1.8,3.9-2.8,6.3-2.8l0,0l-6.1,6.6L65.2,20.7z"/>
	<path id="Path_19" class="st0" d="M70.8,20.7L70.8,20.7c-1.8,0-3.2-1.5-3.2-3.2v0V0.1l0,0c1.8,0,3.2,1.5,3.2,3.2V20.7z"/>
	<path id="Path_20" class="st0" d="M77.5,14.6c0.1,1.1,0.6,2.2,1.5,3c0.9,0.7,1.9,1,3,1c0.7,0,1.3-0.1,2-0.2h0
		c1.1-0.2,2.2,0.4,2.5,1.5l0.1,0.2c-1.5,0.8-3.2,1.1-4.9,1.1c-1.1,0-2.2-0.2-3.2-0.5c-0.9-0.3-1.7-0.9-2.3-1.6
		c-0.6-0.7-1.1-1.5-1.4-2.5c-0.3-1-0.5-2.1-0.5-3.2c0-1,0.1-2,0.4-3c0.2-0.9,0.7-1.7,1.2-2.5c0.6-0.7,1.3-1.3,2.2-1.7
		c1-0.4,2.1-0.6,3.1-0.6c0.9,0,1.8,0.1,2.6,0.5c0.7,0.3,1.4,0.7,1.9,1.3c0.5,0.6,0.9,1.3,1.2,2c0.3,0.8,0.4,1.7,0.4,2.6
		c0,0.5,0,1-0.1,1.4v0c-0.1,0.7-0.7,1.2-1.5,1.2L77.5,14.6z M81.2,8c-1.1-0.1-2.1,0.4-2.8,1.2c-0.7,1-1,2.1-1.1,3.2h6.9v-0.6
		c0.1-1-0.2-2-0.7-2.9C83,8.3,82.2,7.9,81.2,8L81.2,8z"/>
</g>
<g id="Group_31">
	<g id="Group_25">
		
			<linearGradient id="Path_23_1_" gradientUnits="userSpaceOnUse" x1="-852.2354" y1="542.7225" x2="-851.1234" y2="541.9135" gradientTransform="matrix(23.5085 0 0 -32.3231 20032.6055 17550.8223)">
			<stop  offset="0" style="stop-color:#75F8D2"/>
			<stop  offset="0.183" style="stop-color:#6ED8D4"/>
			<stop  offset="0.391" style="stop-color:#67BBD7"/>
			<stop  offset="0.599" style="stop-color:#63A6D9"/>
			<stop  offset="0.803" style="stop-color:#609ADA"/>
			<stop  offset="1" style="stop-color:#6096DB"/>
		</linearGradient>
		<path id="Path_23" class="st1" d="M17,10.3l-2.6-3.9c-0.3-0.5-1-0.6-1.4-0.3c-0.1,0.1-0.2,0.2-0.3,0.3l-3.9,5.9
			c-0.3,0.5-1,0.6-1.4,0.3c-0.3-0.2-0.5-0.5-0.5-0.9V4.2c0-0.6-0.5-1-1-1l0,0H5c-2.8,0-5,2.3-5,5v0v18.4c0,3.2,2.6,5.8,5.8,5.8l0,0
			l0,0c0.6,0,1-0.5,1-1l0,0V24c0-0.6,0.5-1,1-1c0.3,0,0.7,0.2,0.9,0.5l7.1,10.8c0.5,0.8,1.5,1.3,2.4,1.3h4.2c0.6,0,1-0.5,1-1
			c0-0.2-0.1-0.4-0.2-0.6L12.7,18.1c-0.2-0.4-0.2-0.9,0-1.2l4.2-5.3C17.2,11.2,17.2,10.7,17,10.3z"/>
		
			<linearGradient id="Path_24_1_" gradientUnits="userSpaceOnUse" x1="-852.1679" y1="542.9465" x2="-851.0519" y2="542.1405" gradientTransform="matrix(23.5088 0 0 -32.5311 20047.0742 17663.9043)">
			<stop  offset="0" style="stop-color:#75F8D2"/>
			<stop  offset="0.183" style="stop-color:#6ED8D4"/>
			<stop  offset="0.391" style="stop-color:#67BBD7"/>
			<stop  offset="0.599" style="stop-color:#63A6D9"/>
			<stop  offset="0.803" style="stop-color:#609ADA"/>
			<stop  offset="1" style="stop-color:#6096DB"/>
		</linearGradient>
		<path id="Path_24" class="st2" d="M30.9,4.1v7.4c0,0.6-0.5,1-1,1c-0.3,0-0.7-0.2-0.9-0.5L21.9,1.3C21.4,0.5,20.5,0,19.5,0h-4.2
			c-0.6,0-1,0.5-1,1c0,0.2,0.1,0.4,0.2,0.6L25,17.4c0.2,0.4,0.2,0.9,0,1.2l-4.4,5.8c-0.3,0.4-0.3,0.8,0,1.2l2.6,3.9
			c0.3,0.5,1,0.6,1.4,0.3c0.1-0.1,0.2-0.2,0.3-0.3l4.2-6.4c0.3-0.5,1-0.6,1.4-0.3c0.3,0.2,0.5,0.5,0.5,0.9v7.8c0,0.6,0.5,1,1,1l0,0
			h0.7c2.8,0,5-2.3,5-5v0V8.9c0-3.2-2.6-5.8-5.8-5.8l0,0C31.4,3.1,30.9,3.5,30.9,4.1C30.9,4.1,30.9,4.1,30.9,4.1z"/>
	</g>
	
		<linearGradient id="Path_25_1_" gradientUnits="userSpaceOnUse" x1="-746.6021" y1="493.954" x2="-745.8181" y2="493.3481" gradientTransform="matrix(6.2112 0 0 -8.0341 4653.5859 3984.4009)">
		<stop  offset="0" style="stop-color:#75F8D2"/>
		<stop  offset="0.183" style="stop-color:#6ED8D4"/>
		<stop  offset="0.391" style="stop-color:#67BBD7"/>
		<stop  offset="0.599" style="stop-color:#63A6D9"/>
		<stop  offset="0.803" style="stop-color:#609ADA"/>
		<stop  offset="1" style="stop-color:#6096DB"/>
	</linearGradient>
	<path id="Path_25" class="st3" d="M18.2,21.9l-2.4-3.5c-0.3-0.4-0.3-0.9,0-1.3l1.6-2.3c0.4-0.5,1.1-0.6,1.5-0.2
		c0.1,0.1,0.2,0.1,0.2,0.2l2.4,3.2c0.3,0.4,0.3,0.9,0,1.3L20,21.9c-0.4,0.5-1,0.6-1.5,0.3C18.4,22.1,18.3,22,18.2,21.9z"/>
</g>
</svg>
